<svg xmlns="http://www.w3.org/2000/svg" version="1.1" xmlns:xlink="http://www.w3.org/1999/xlink" xmlns:svgjs="http://svgjs.dev/svgjs" width="1000" height="1000"><g clip-path="url(#SvgjsClipPath1207)"><rect width="1000" height="1000" fill="#ffffff"></rect><g transform="matrix(1.953125,0,0,1.953125,-0.000010907649993896484,-0.000014543533325195312)"><svg xmlns="http://www.w3.org/2000/svg" version="1.1" xmlns:xlink="http://www.w3.org/1999/xlink" xmlns:svgjs="http://svgjs.dev/svgjs" width="512" height="512"><svg xmlns="http://www.w3.org/2000/svg" xmlns:xlink="http://www.w3.org/1999/xlink" width="512" zoomAndPan="magnify" viewBox="0 0 384 383.999986" height="512" preserveAspectRatio="xMidYMid meet" version="1.0"><defs><g></g><clipPath id="SvgjsClipPath1207"><rect width="1000" height="1000" x="0" y="0" rx="500" ry="500"></rect></clipPath></defs><rect x="-38.4" width="460.8" fill="#ffffff" y="-38.399999" height="460.799983" fill-opacity="1"></rect><rect x="-38.4" width="460.8" fill="#e1e1e1" y="-38.399999" height="460.799983" fill-opacity="1"></rect><g fill="#000000" fill-opacity="1"><g transform="translate(58.093695, 241.151979)"><g><path d="M 19.34375 -43.25 C 13.707031 -35.875 10.890625 -27.90625 10.890625 -19.34375 C 10.890625 -9.15625 15.171875 -1.242188 23.734375 4.390625 C 28.722656 7.753906 34.382812 9.4375 40.71875 9.4375 C 47.0625 9.4375 52.566406 8.1875 57.234375 5.6875 C 66.015625 1.132812 70.945312 -6.503906 72.03125 -17.234375 C 72.132812 -17.992188 72.1875 -18.753906 72.1875 -19.515625 C 72.1875 -23.523438 71.078125 -27.859375 68.859375 -32.515625 C 66.640625 -37.179688 63.035156 -41.460938 58.046875 -45.359375 L 28.78125 -68.453125 C 22.382812 -73.441406 19.1875 -79.890625 19.1875 -87.796875 C 19.1875 -95.710938 21.734375 -102.40625 26.828125 -107.875 C 31.921875 -113.351562 38.804688 -116.09375 47.484375 -116.09375 C 51.816406 -116.09375 56.53125 -115.550781 61.625 -114.46875 L 68.125 -114.46875 L 68.453125 -94.46875 L 66.828125 -94.46875 C 66.710938 -99.664062 64.835938 -103.753906 61.203125 -106.734375 C 57.578125 -109.722656 53.023438 -111.21875 47.546875 -111.21875 C 42.078125 -111.21875 37.5 -109.398438 33.8125 -105.765625 C 30.132812 -102.140625 28.296875 -97.476562 28.296875 -91.78125 C 28.296875 -86.09375 30.679688 -81.351562 35.453125 -77.5625 L 65.53125 -53.8125 C 77.445312 -44.382812 83.40625 -33.003906 83.40625 -19.671875 C 83.40625 -9.703125 79.453125 -1.140625 71.546875 6.015625 C 64.710938 12.191406 55.601562 15.28125 44.21875 15.28125 C 37.28125 15.28125 31.101562 13.976562 25.6875 11.375 C 15.5 6.613281 9.375 -1.507812 7.3125 -13 C 6.988281 -14.738281 6.828125 -16.9375 6.828125 -19.59375 C 6.828125 -22.25 7.582031 -25.878906 9.09375 -30.484375 C 10.613281 -35.085938 13.546875 -39.722656 17.890625 -44.390625 Z M 19.34375 -43.25 "></path></g></g></g><g fill="#000000" fill-opacity="1"><g transform="translate(147.361113, 241.151979)"><g><path d="M 19.34375 -43.25 C 13.707031 -35.875 10.890625 -27.90625 10.890625 -19.34375 C 10.890625 -9.15625 15.171875 -1.242188 23.734375 4.390625 C 28.722656 7.753906 34.382812 9.4375 40.71875 9.4375 C 47.0625 9.4375 52.566406 8.1875 57.234375 5.6875 C 66.015625 1.132812 70.945312 -6.503906 72.03125 -17.234375 C 72.132812 -17.992188 72.1875 -18.753906 72.1875 -19.515625 C 72.1875 -23.523438 71.078125 -27.859375 68.859375 -32.515625 C 66.640625 -37.179688 63.035156 -41.460938 58.046875 -45.359375 L 28.78125 -68.453125 C 22.382812 -73.441406 19.1875 -79.890625 19.1875 -87.796875 C 19.1875 -95.710938 21.734375 -102.40625 26.828125 -107.875 C 31.921875 -113.351562 38.804688 -116.09375 47.484375 -116.09375 C 51.816406 -116.09375 56.53125 -115.550781 61.625 -114.46875 L 68.125 -114.46875 L 68.453125 -94.46875 L 66.828125 -94.46875 C 66.710938 -99.664062 64.835938 -103.753906 61.203125 -106.734375 C 57.578125 -109.722656 53.023438 -111.21875 47.546875 -111.21875 C 42.078125 -111.21875 37.5 -109.398438 33.8125 -105.765625 C 30.132812 -102.140625 28.296875 -97.476562 28.296875 -91.78125 C 28.296875 -86.09375 30.679688 -81.351562 35.453125 -77.5625 L 65.53125 -53.8125 C 77.445312 -44.382812 83.40625 -33.003906 83.40625 -19.671875 C 83.40625 -9.703125 79.453125 -1.140625 71.546875 6.015625 C 64.710938 12.191406 55.601562 15.28125 44.21875 15.28125 C 37.28125 15.28125 31.101562 13.976562 25.6875 11.375 C 15.5 6.613281 9.375 -1.507812 7.3125 -13 C 6.988281 -14.738281 6.828125 -16.9375 6.828125 -19.59375 C 6.828125 -22.25 7.582031 -25.878906 9.09375 -30.484375 C 10.613281 -35.085938 13.546875 -39.722656 17.890625 -44.390625 Z M 19.34375 -43.25 "></path></g></g></g><g fill="#000000" fill-opacity="1"><g transform="translate(236.628532, 241.151979)"><g><path d="M 19.34375 -43.25 C 13.707031 -35.875 10.890625 -27.90625 10.890625 -19.34375 C 10.890625 -9.15625 15.171875 -1.242188 23.734375 4.390625 C 28.722656 7.753906 34.382812 9.4375 40.71875 9.4375 C 47.0625 9.4375 52.566406 8.1875 57.234375 5.6875 C 66.015625 1.132812 70.945312 -6.503906 72.03125 -17.234375 C 72.132812 -17.992188 72.1875 -18.753906 72.1875 -19.515625 C 72.1875 -23.523438 71.078125 -27.859375 68.859375 -32.515625 C 66.640625 -37.179688 63.035156 -41.460938 58.046875 -45.359375 L 28.78125 -68.453125 C 22.382812 -73.441406 19.1875 -79.890625 19.1875 -87.796875 C 19.1875 -95.710938 21.734375 -102.40625 26.828125 -107.875 C 31.921875 -113.351562 38.804688 -116.09375 47.484375 -116.09375 C 51.816406 -116.09375 56.53125 -115.550781 61.625 -114.46875 L 68.125 -114.46875 L 68.453125 -94.46875 L 66.828125 -94.46875 C 66.710938 -99.664062 64.835938 -103.753906 61.203125 -106.734375 C 57.578125 -109.722656 53.023438 -111.21875 47.546875 -111.21875 C 42.078125 -111.21875 37.5 -109.398438 33.8125 -105.765625 C 30.132812 -102.140625 28.296875 -97.476562 28.296875 -91.78125 C 28.296875 -86.09375 30.679688 -81.351562 35.453125 -77.5625 L 65.53125 -53.8125 C 77.445312 -44.382812 83.40625 -33.003906 83.40625 -19.671875 C 83.40625 -9.703125 79.453125 -1.140625 71.546875 6.015625 C 64.710938 12.191406 55.601562 15.28125 44.21875 15.28125 C 37.28125 15.28125 31.101562 13.976562 25.6875 11.375 C 15.5 6.613281 9.375 -1.507812 7.3125 -13 C 6.988281 -14.738281 6.828125 -16.9375 6.828125 -19.59375 C 6.828125 -22.25 7.582031 -25.878906 9.09375 -30.484375 C 10.613281 -35.085938 13.546875 -39.722656 17.890625 -44.390625 Z M 19.34375 -43.25 "></path></g></g></g><path fill="#e1e1e1" d="M 45.90625 183.804688 L 338.089844 183.804688 C 339.175781 183.804688 340.21875 184.238281 340.988281 185.003906 C 341.757812 185.773438 342.1875 186.816406 342.1875 187.902344 L 342.1875 196.097656 C 342.1875 197.183594 341.757812 198.226562 340.988281 198.996094 C 340.21875 199.761719 339.175781 200.195312 338.089844 200.195312 L 45.90625 200.195312 C 43.640625 200.195312 41.808594 198.359375 41.808594 196.097656 L 41.808594 187.902344 C 41.808594 185.640625 43.640625 183.804688 45.90625 183.804688 Z M 45.90625 183.804688 " fill-opacity="1" fill-rule="nonzero"></path><g fill="#000000" fill-opacity="1"><g transform="translate(49.812226, 195.071987)"><g><path d="M 3.015625 0.09375 C 2.160156 0.09375 1.492188 -0.0976562 1.015625 -0.484375 C 0.535156 -0.867188 0.257812 -1.425781 0.1875 -2.15625 L 1.4375 -2.34375 C 1.5625 -1.46875 2.109375 -1.03125 3.078125 -1.03125 C 3.492188 -1.03125 3.816406 -1.113281 4.046875 -1.28125 C 4.273438 -1.445312 4.390625 -1.679688 4.390625 -1.984375 C 4.390625 -2.265625 4.273438 -2.472656 4.046875 -2.609375 C 3.816406 -2.742188 3.445312 -2.875 2.9375 -3 C 2.457031 -3.113281 2.046875 -3.25 1.703125 -3.40625 C 1.359375 -3.570312 1.09375 -3.789062 0.90625 -4.0625 C 0.726562 -4.34375 0.640625 -4.707031 0.640625 -5.15625 C 0.640625 -5.582031 0.75 -5.960938 0.96875 -6.296875 C 1.195312 -6.640625 1.503906 -6.90625 1.890625 -7.09375 C 2.285156 -7.28125 2.738281 -7.375 3.25 -7.375 C 3.925781 -7.375 4.476562 -7.195312 4.90625 -6.84375 C 5.34375 -6.488281 5.597656 -6 5.671875 -5.375 L 4.5 -5.1875 C 4.351562 -5.894531 3.914062 -6.25 3.1875 -6.25 C 2.832031 -6.25 2.539062 -6.15625 2.3125 -5.96875 C 2.09375 -5.789062 1.984375 -5.550781 1.984375 -5.25 C 1.984375 -4.945312 2.09375 -4.710938 2.3125 -4.546875 C 2.53125 -4.390625 2.90625 -4.25 3.4375 -4.125 C 3.90625 -4.019531 4.3125 -3.894531 4.65625 -3.75 C 5 -3.601562 5.265625 -3.398438 5.453125 -3.140625 C 5.640625 -2.878906 5.734375 -2.523438 5.734375 -2.078125 C 5.734375 -1.648438 5.617188 -1.273438 5.390625 -0.953125 C 5.160156 -0.628906 4.84375 -0.375 4.4375 -0.1875 C 4.03125 0 3.554688 0.09375 3.015625 0.09375 Z M 3.015625 0.09375 "></path></g></g></g><g fill="#000000" fill-opacity="1"><g transform="translate(63.62306, 195.071987)"><g><path d="M -0.109375 0 L 3 -7.28125 L 4.125 -7.28125 L 7.109375 0 L 5.765625 0 L 5.109375 -1.65625 L 1.921875 -1.65625 L 1.25 0 Z M 2.390625 -2.78125 L 4.671875 -2.78125 L 3.546875 -5.640625 Z M 2.390625 -2.78125 "></path></g></g></g><g fill="#000000" fill-opacity="1"><g transform="translate(78.479193, 195.071987)"><g><path d="M 6.234375 -7.28125 L 3.6875 -3.265625 L 3.6875 0 L 2.34375 0 L 2.34375 -3.234375 L -0.265625 -7.28125 L 1.234375 -7.28125 L 3.078125 -4.421875 L 4.84375 -7.28125 Z M 6.234375 -7.28125 "></path></g></g></g><g fill="#000000" fill-opacity="1"><g transform="translate(92.300279, 195.071987)"><g><path d="M 0.75 0 L 0.75 -7.28125 L 2.078125 -7.28125 L 2.078125 0 Z M 0.75 0 "></path></g></g></g><g fill="#000000" fill-opacity="1"><g transform="translate(102.934218, 195.071987)"><g><path d="M 0.75 0 L 0.75 -7.28125 L 2.90625 -7.28125 C 4.320312 -7.28125 5.390625 -6.972656 6.109375 -6.359375 C 6.835938 -5.753906 7.203125 -4.859375 7.203125 -3.671875 C 7.203125 -2.929688 7.039062 -2.285156 6.71875 -1.734375 C 6.40625 -1.179688 5.953125 -0.753906 5.359375 -0.453125 C 4.773438 -0.148438 4.085938 0 3.296875 0 Z M 2.078125 -1.171875 L 3.234375 -1.171875 C 4.085938 -1.171875 4.738281 -1.378906 5.1875 -1.796875 C 5.632812 -2.210938 5.859375 -2.820312 5.859375 -3.625 C 5.859375 -4.457031 5.628906 -5.078125 5.171875 -5.484375 C 4.710938 -5.890625 4.015625 -6.09375 3.078125 -6.09375 L 2.078125 -6.09375 Z M 2.078125 -1.171875 "></path></g></g></g><g fill="#000000" fill-opacity="1"><g transform="translate(118.405234, 195.071987)"><g></g></g></g><g fill="#000000" fill-opacity="1"><g transform="translate(128.700993, 195.071987)"><g><path d="M 3.015625 0.09375 C 2.160156 0.09375 1.492188 -0.0976562 1.015625 -0.484375 C 0.535156 -0.867188 0.257812 -1.425781 0.1875 -2.15625 L 1.4375 -2.34375 C 1.5625 -1.46875 2.109375 -1.03125 3.078125 -1.03125 C 3.492188 -1.03125 3.816406 -1.113281 4.046875 -1.28125 C 4.273438 -1.445312 4.390625 -1.679688 4.390625 -1.984375 C 4.390625 -2.265625 4.273438 -2.472656 4.046875 -2.609375 C 3.816406 -2.742188 3.445312 -2.875 2.9375 -3 C 2.457031 -3.113281 2.046875 -3.25 1.703125 -3.40625 C 1.359375 -3.570312 1.09375 -3.789062 0.90625 -4.0625 C 0.726562 -4.34375 0.640625 -4.707031 0.640625 -5.15625 C 0.640625 -5.582031 0.75 -5.960938 0.96875 -6.296875 C 1.195312 -6.640625 1.503906 -6.90625 1.890625 -7.09375 C 2.285156 -7.28125 2.738281 -7.375 3.25 -7.375 C 3.925781 -7.375 4.476562 -7.195312 4.90625 -6.84375 C 5.34375 -6.488281 5.597656 -6 5.671875 -5.375 L 4.5 -5.1875 C 4.351562 -5.894531 3.914062 -6.25 3.1875 -6.25 C 2.832031 -6.25 2.539062 -6.15625 2.3125 -5.96875 C 2.09375 -5.789062 1.984375 -5.550781 1.984375 -5.25 C 1.984375 -4.945312 2.09375 -4.710938 2.3125 -4.546875 C 2.53125 -4.390625 2.90625 -4.25 3.4375 -4.125 C 3.90625 -4.019531 4.3125 -3.894531 4.65625 -3.75 C 5 -3.601562 5.265625 -3.398438 5.453125 -3.140625 C 5.640625 -2.878906 5.734375 -2.523438 5.734375 -2.078125 C 5.734375 -1.648438 5.617188 -1.273438 5.390625 -0.953125 C 5.160156 -0.628906 4.84375 -0.375 4.4375 -0.1875 C 4.03125 0 3.554688 0.09375 3.015625 0.09375 Z M 3.015625 0.09375 "></path></g></g></g><g fill="#000000" fill-opacity="1"><g transform="translate(142.511826, 195.071987)"><g><path d="M 0.75 0 L 0.75 -7.28125 L 2.078125 -7.28125 L 2.078125 -4.265625 L 5.53125 -4.265625 L 5.53125 -7.28125 L 6.875 -7.28125 L 6.875 0 L 5.53125 0 L 5.53125 -3.09375 L 2.078125 -3.09375 L 2.078125 0 Z M 0.75 0 "></path></g></g></g><g fill="#000000" fill-opacity="1"><g transform="translate(157.921354, 195.071987)"><g><path d="M -0.109375 0 L 3 -7.28125 L 4.125 -7.28125 L 7.109375 0 L 5.765625 0 L 5.109375 -1.65625 L 1.921875 -1.65625 L 1.25 0 Z M 2.390625 -2.78125 L 4.671875 -2.78125 L 3.546875 -5.640625 Z M 2.390625 -2.78125 "></path></g></g></g><g fill="#000000" fill-opacity="1"><g transform="translate(172.777482, 195.071987)"><g><path d="M 6.234375 -7.28125 L 3.6875 -3.265625 L 3.6875 0 L 2.34375 0 L 2.34375 -3.234375 L -0.265625 -7.28125 L 1.234375 -7.28125 L 3.078125 -4.421875 L 4.84375 -7.28125 Z M 6.234375 -7.28125 "></path></g></g></g><g fill="#000000" fill-opacity="1"><g transform="translate(186.598575, 195.071987)"><g><path d="M 0.75 0 L 0.75 -7.28125 L 2.078125 -7.28125 L 2.078125 -4.03125 L 5.109375 -7.28125 L 6.71875 -7.28125 L 3.296875 -3.65625 C 3.585938 -3.5 3.832031 -3.257812 4.03125 -2.9375 L 4.859375 -1.65625 C 5.003906 -1.4375 5.144531 -1.285156 5.28125 -1.203125 C 5.414062 -1.128906 5.585938 -1.09375 5.796875 -1.09375 C 6.035156 -1.09375 6.25 -1.148438 6.4375 -1.265625 L 6.75 -0.234375 C 6.613281 -0.128906 6.441406 -0.0507812 6.234375 0 C 6.035156 0.0625 5.828125 0.09375 5.609375 0.09375 C 4.835938 0.09375 4.238281 -0.242188 3.8125 -0.921875 L 2.75 -2.546875 C 2.65625 -2.679688 2.554688 -2.789062 2.453125 -2.875 C 2.359375 -2.957031 2.234375 -3.015625 2.078125 -3.046875 L 2.078125 0 Z M 0.75 0 "></path></g></g></g><g fill="#000000" fill-opacity="1"><g transform="translate(200.860316, 195.071987)"><g><path d="M 0.75 0 L 0.75 -7.28125 L 2.078125 -7.28125 L 2.078125 -4.265625 L 5.53125 -4.265625 L 5.53125 -7.28125 L 6.875 -7.28125 L 6.875 0 L 5.53125 0 L 5.53125 -3.09375 L 2.078125 -3.09375 L 2.078125 0 Z M 0.75 0 "></path></g></g></g><g fill="#000000" fill-opacity="1"><g transform="translate(216.269838, 195.071987)"><g></g></g></g><g fill="#000000" fill-opacity="1"><g transform="translate(226.565603, 195.071987)"><g><path d="M 3.015625 0.09375 C 2.160156 0.09375 1.492188 -0.0976562 1.015625 -0.484375 C 0.535156 -0.867188 0.257812 -1.425781 0.1875 -2.15625 L 1.4375 -2.34375 C 1.5625 -1.46875 2.109375 -1.03125 3.078125 -1.03125 C 3.492188 -1.03125 3.816406 -1.113281 4.046875 -1.28125 C 4.273438 -1.445312 4.390625 -1.679688 4.390625 -1.984375 C 4.390625 -2.265625 4.273438 -2.472656 4.046875 -2.609375 C 3.816406 -2.742188 3.445312 -2.875 2.9375 -3 C 2.457031 -3.113281 2.046875 -3.25 1.703125 -3.40625 C 1.359375 -3.570312 1.09375 -3.789062 0.90625 -4.0625 C 0.726562 -4.34375 0.640625 -4.707031 0.640625 -5.15625 C 0.640625 -5.582031 0.75 -5.960938 0.96875 -6.296875 C 1.195312 -6.640625 1.503906 -6.90625 1.890625 -7.09375 C 2.285156 -7.28125 2.738281 -7.375 3.25 -7.375 C 3.925781 -7.375 4.476562 -7.195312 4.90625 -6.84375 C 5.34375 -6.488281 5.597656 -6 5.671875 -5.375 L 4.5 -5.1875 C 4.351562 -5.894531 3.914062 -6.25 3.1875 -6.25 C 2.832031 -6.25 2.539062 -6.15625 2.3125 -5.96875 C 2.09375 -5.789062 1.984375 -5.550781 1.984375 -5.25 C 1.984375 -4.945312 2.09375 -4.710938 2.3125 -4.546875 C 2.53125 -4.390625 2.90625 -4.25 3.4375 -4.125 C 3.90625 -4.019531 4.3125 -3.894531 4.65625 -3.75 C 5 -3.601562 5.265625 -3.398438 5.453125 -3.140625 C 5.640625 -2.878906 5.734375 -2.523438 5.734375 -2.078125 C 5.734375 -1.648438 5.617188 -1.273438 5.390625 -0.953125 C 5.160156 -0.628906 4.84375 -0.375 4.4375 -0.1875 C 4.03125 0 3.554688 0.09375 3.015625 0.09375 Z M 3.015625 0.09375 "></path></g></g></g><g fill="#000000" fill-opacity="1"><g transform="translate(240.37643, 195.071987)"><g><path d="M 5.59375 -7.28125 L 6.90625 -7.28125 L 6.921875 -3.40625 C 6.921875 -2.675781 6.800781 -2.050781 6.5625 -1.53125 C 6.320312 -1.007812 5.96875 -0.609375 5.5 -0.328125 C 5.039062 -0.046875 4.488281 0.09375 3.84375 0.09375 C 2.800781 0.09375 2.019531 -0.164062 1.5 -0.6875 C 0.976562 -1.207031 0.71875 -2.003906 0.71875 -3.078125 L 0.71875 -7.28125 L 2.046875 -7.28125 L 2.046875 -3.1875 C 2.046875 -2.457031 2.191406 -1.925781 2.484375 -1.59375 C 2.785156 -1.269531 3.234375 -1.109375 3.828125 -1.109375 C 4.421875 -1.109375 4.863281 -1.296875 5.15625 -1.671875 C 5.457031 -2.054688 5.601562 -2.65625 5.59375 -3.46875 Z M 5.59375 -7.28125 "></path></g></g></g><g fill="#000000" fill-opacity="1"><g transform="translate(255.816703, 195.071987)"><g><path d="M 0.75 0 L 0.75 -7.28125 L 2.078125 -7.28125 L 2.078125 -1.171875 L 5.3125 -1.171875 L 5.234375 0 Z M 0.75 0 "></path></g></g></g><g fill="#000000" fill-opacity="1"><g transform="translate(268.889671, 195.071987)"><g><path d="M -0.109375 0 L 3 -7.28125 L 4.125 -7.28125 L 7.109375 0 L 5.765625 0 L 5.109375 -1.65625 L 1.921875 -1.65625 L 1.25 0 Z M 2.390625 -2.78125 L 4.671875 -2.78125 L 3.546875 -5.640625 Z M 2.390625 -2.78125 "></path></g></g></g><g fill="#000000" fill-opacity="1"><g transform="translate(283.74581, 195.071987)"><g><path d="M 0.75 0 L 0.75 -7.28125 L 2.078125 -7.28125 L 2.078125 0 Z M 0.75 0 "></path></g></g></g><g fill="#000000" fill-opacity="1"><g transform="translate(294.379754, 195.071987)"><g><path d="M 0.703125 0 L 0.984375 -7.28125 L 2.140625 -7.28125 L 4.8125 -1.671875 L 7.46875 -7.28125 L 8.625 -7.28125 L 8.84375 0 L 7.5625 0 L 7.421875 -4.53125 L 5.265625 0 L 4.25 0 L 2.125 -4.5 L 1.9375 0 Z M 0.703125 0 "></path></g></g></g><g fill="#000000" fill-opacity="1"><g transform="translate(311.756901, 195.071987)"><g><path d="M -0.109375 0 L 3 -7.28125 L 4.125 -7.28125 L 7.109375 0 L 5.765625 0 L 5.109375 -1.65625 L 1.921875 -1.65625 L 1.25 0 Z M 2.390625 -2.78125 L 4.671875 -2.78125 L 3.546875 -5.640625 Z M 2.390625 -2.78125 "></path></g></g></g><g fill="#000000" fill-opacity="1"><g transform="translate(326.613041, 195.071987)"><g><path d="M 5.53125 -7.28125 L 6.8125 -7.28125 L 6.8125 0 L 5.640625 0 L 2.03125 -5.078125 L 2.03125 0 L 0.75 0 L 0.75 -7.28125 L 1.921875 -7.28125 L 5.53125 -2.203125 Z M 5.53125 -7.28125 "></path></g></g></g></svg></svg></g></g></svg>